# xmcd
#
# Track frame offsets: 
#        150
#        9979
#        25197
#        37505
#        52813
#        67932
#        80248
#        95035
#        110022
#        131842
#
# Disc length: 1922 seconds
#
# Revision: 0
# Processed by: cddbd v1.5.2PL0 Copyright (c) Steve Scherf et al.
# Submitted via: ExactAudioCopyFreeDBPlugin 1.0
#
DISCID=7707800a
DTITLE=Larkin Poe - Peach
DYEAR=2017
DGENRE=Blues
TTITLE0=Come On In My Kitchen
TTITLE1=Freedom
TTITLE2=Black Betty
TTITLE3=Look Away
TTITLE4=Preachin' Blues
TTITLE5=Cast 'em Out
TTITLE6=Pink and Red
TTITLE7=John The Revalator
TTITLE8=Wanted Woman - AC-DC
TTITLE9=Tom Devil
EXTD=
EXTT0=
EXTT1=
EXTT2=
EXTT3=
EXTT4=
EXTT5=
EXTT6=
EXTT7=
EXTT8=
EXTT9=
PLAYORDER=
